<svg xmlns="http://www.w3.org/2000/svg" width="850" height="230" viewBox="0 0 850 230">
  <defs>
    <style>
      .star { animation: twinkle 6s ease-in-out infinite; }
      .s1 { animation-delay: 2s; }
      .s2 { animation-delay: 4s; }
      @keyframes twinkle {
        0%, 100% { opacity: 0.45; }
        50% { opacity: 1; }
      }
    </style>
  </defs>

  <rect x="0.5" y="0.5" width="849" height="229" rx="10" ry="10"
        fill="#0f1623" stroke="#1a2332" stroke-width="1"/>

  <text x="30" y="42" fill="#00d4ff" font-size="13" font-family="ui-monospace, SFMono-Regular, Menlo, monospace">hugh514@github:~$ ./telemetry</text>
  <line x1="30" y1="54" x2="820" y2="54" stroke="#1a2332" stroke-width="1"/>

  <!-- star chart -->
    <line x1="98" y1="76" x2="86" y2="118" stroke="#00d4ff" stroke-width="0.6" opacity="0.28"/>
    <line x1="86" y1="118" x2="140" y2="88" stroke="#00d4ff" stroke-width="0.6" opacity="0.28"/>
    <line x1="86" y1="118" x2="122" y2="124" stroke="#00d4ff" stroke-width="0.6" opacity="0.28"/>
    <line x1="122" y1="124" x2="160" y2="146" stroke="#00d4ff" stroke-width="0.6" opacity="0.28"/>
    <line x1="86" y1="118" x2="96" y2="154" stroke="#00d4ff" stroke-width="0.6" opacity="0.28"/>
    <line x1="96" y1="154" x2="52" y2="130" stroke="#00d4ff" stroke-width="0.6" opacity="0.28"/>
    <line x1="96" y1="154" x2="130" y2="170" stroke="#00d4ff" stroke-width="0.6" opacity="0.28"/>
    <line x1="130" y1="170" x2="116" y2="196" stroke="#00d4ff" stroke-width="0.6" opacity="0.28"/>
    <line x1="116" y1="196" x2="78" y2="190" stroke="#00d4ff" stroke-width="0.6" opacity="0.28"/>
    <line x1="130" y1="170" x2="150" y2="200" stroke="#00d4ff" stroke-width="0.6" opacity="0.28"/>
    <circle class="star s0" cx="64" cy="92" r="1.3" fill="#64748b"/>
    <circle class="star s1" cx="98" cy="76" r="1.0" fill="#64748b"/>
    <circle class="star s2" cx="140" cy="88" r="1.7" fill="#00d4ff"/>
    <circle class="star s0" cx="172" cy="116" r="1.1" fill="#64748b"/>
    <circle class="star s1" cx="52" cy="130" r="1.0" fill="#64748b"/>
    <circle class="star s2" cx="86" cy="118" r="2.4" fill="#00d4ff"/>
    <circle class="star s0" cx="122" cy="124" r="1.2" fill="#64748b"/>
    <circle class="star s1" cx="160" cy="146" r="1.4" fill="#64748b"/>
    <circle class="star s2" cx="60" cy="164" r="1.1" fill="#64748b"/>
    <circle class="star s0" cx="96" cy="154" r="1.6" fill="#00d4ff"/>
    <circle class="star s1" cx="130" cy="170" r="1.0" fill="#64748b"/>
    <circle class="star s2" cx="168" cy="178" r="1.2" fill="#64748b"/>
    <circle class="star s0" cx="78" cy="190" r="1.3" fill="#64748b"/>
    <circle class="star s1" cx="116" cy="196" r="1.0" fill="#64748b"/>
    <circle class="star s2" cx="150" cy="200" r="1.5" fill="#00d4ff"/>

  <!-- divider between panes -->
  <line x1="204" y1="72" x2="204" y2="204" stroke="#1a2332" stroke-width="1" opacity="0.6"/>

  <!-- key/value rows -->
    <g>
      <text x="232" y="92" fill="#94a3b8" font-size="13" font-family="ui-monospace, SFMono-Regular, Menlo, monospace">Commits</text>
      <line x1="294" y1="88" x2="780" y2="88" stroke="#1a2332" stroke-width="1" stroke-dasharray="1 5"/>
      <text x="820" y="92" text-anchor="end" fill="#00d4ff" font-size="13" font-weight="500" font-family="ui-monospace, SFMono-Regular, Menlo, monospace">4.3k</text>
    </g>
    <g>
      <text x="232" y="117" fill="#94a3b8" font-size="13" font-family="ui-monospace, SFMono-Regular, Menlo, monospace">PRs</text>
      <line x1="264" y1="113" x2="795" y2="113" stroke="#1a2332" stroke-width="1" stroke-dasharray="1 5"/>
      <text x="820" y="117" text-anchor="end" fill="#00d4ff" font-size="13" font-weight="500" font-family="ui-monospace, SFMono-Regular, Menlo, monospace">34</text>
    </g>
    <g>
      <text x="232" y="142" fill="#94a3b8" font-size="13" font-family="ui-monospace, SFMono-Regular, Menlo, monospace">Repos</text>
      <line x1="279" y1="138" x2="795" y2="138" stroke="#1a2332" stroke-width="1" stroke-dasharray="1 5"/>
      <text x="820" y="142" text-anchor="end" fill="#00d4ff" font-size="13" font-weight="500" font-family="ui-monospace, SFMono-Regular, Menlo, monospace">12</text>
    </g>
    <g>
      <text x="232" y="167" fill="#94a3b8" font-size="13" font-family="ui-monospace, SFMono-Regular, Menlo, monospace">Stars</text>
      <line x1="279" y1="163" x2="803" y2="163" stroke="#1a2332" stroke-width="1" stroke-dasharray="1 5"/>
      <text x="820" y="167" text-anchor="end" fill="#00d4ff" font-size="13" font-weight="500" font-family="ui-monospace, SFMono-Regular, Menlo, monospace">7</text>
    </g>
    <g>
      <text x="232" y="192" fill="#94a3b8" font-size="13" font-family="ui-monospace, SFMono-Regular, Menlo, monospace">Languages</text>
      <line x1="309" y1="188" x2="647" y2="188" stroke="#1a2332" stroke-width="1" stroke-dasharray="1 5"/>
      <text x="820" y="192" text-anchor="end" fill="#f1f5f9" font-size="13" font-weight="500" font-family="ui-monospace, SFMono-Regular, Menlo, monospace">TypeScript, Python, C#</text>
    </g>
    <g>
      <text x="232" y="217" fill="#94a3b8" font-size="13" font-family="ui-monospace, SFMono-Regular, Menlo, monospace">Focus</text>
      <line x1="279" y1="213" x2="566" y2="213" stroke="#1a2332" stroke-width="1" stroke-dasharray="1 5"/>
      <text x="820" y="217" text-anchor="end" fill="#f1f5f9" font-size="13" font-weight="500" font-family="ui-monospace, SFMono-Regular, Menlo, monospace">Frontend, Backend, Mobile &amp; Infra</text>
    </g>
</svg>